<svg width="0" height="0" class="hidden">
	<symbol fill="none" xmlns="http://www.w3.org/2000/svg" viewBox="0 0 20 21" id="addBookSVG">
		<path
			d="M3.33331 18.8333H15C15.442 18.8333 15.8659 18.6577 16.1785 18.3452C16.4911 18.0326 16.6666 17.6087 16.6666 17.1667V6.75001L12.0833 2.16667H4.99998C4.55795 2.16667 4.13403 2.34227 3.82147 2.65483C3.50891 2.96739 3.33331 3.39131 3.33331 3.83334V7.16667"
			stroke-width="2" stroke-linecap="round" stroke-linejoin="round"></path>
		<path d="M11.6667 2.16667V7.16667H16.6667" stroke-width="2"
			stroke-linecap="round" stroke-linejoin="round"></path>
		<path d="M2.5 13H7.5" stroke-width="2" stroke-linecap="round"
			stroke-linejoin="round"></path>
		<path d="M5 10.5V15.5" stroke-width="2" stroke-linecap="round"
			stroke-linejoin="round"></path>
	</symbol>
	<symbol xmlns="http://www.w3.org/2000/svg" viewBox="0 0 16 16" id="checkboxSVG">
		<path
			d="M12.6667 2H3.33333C2.59695 2 2 2.59695 2 3.33333V12.6667C2 13.403 2.59695 14 3.33333 14H12.6667C13.403 14 14 13.403 14 12.6667V3.33333C14 2.59695 13.403 2 12.6667 2Z"
			stroke-width="2" stroke-linecap="round" stroke-linejoin="round"></path>
	</symbol>
	<symbol fill="none" xmlns="http://www.w3.org/2000/svg" viewBox="0 0 16 16" id="checkMark">
		<path d="M1 7L4 9L9 1" stroke="white" stroke-width="2" stroke-linecap="round"
			stroke-linejoin="round"></path>
	</symbol>

	<symbol fill="none" xmlns="http://www.w3.org/2000/svg" viewBox="0 0 24 24" id="closeSVG">
		<path d="M18 6L6 18" stroke-width="2" stroke-linecap="round"
			stroke-linejoin="round"></path>
		<path d="M6 6L18 18" stroke-width="2" stroke-linecap="round"
			stroke-linejoin="round"></path>
	</symbol>
	<symbol fill="none" xmlns="http://www.w3.org/2000/svg" viewBox="0 0 24 24" id="bookNotAddedSVG">
		<path
			d="M4 22H18C18.5304 22 19.0391 21.7893 19.4142 21.4142C19.7893 21.0391 20 20.5304 20 20V7.5L14.5 2H6C5.46957 2 4.96086 2.21071 4.58579 2.58579C4.21071 2.96086 4 3.46957 4 4V8"
			stroke="white" stroke-width="2" stroke-linecap="round" stroke-linejoin="round"></path>
		<path d="M14 2V8H20" stroke="white" stroke-width="2" stroke-linecap="round"
			stroke-linejoin="round"></path>
		<path d="M3 12.5L8 17.5" stroke="white" stroke-width="2" stroke-linecap="round"
			stroke-linejoin="round"></path>
		<path d="M8 12.5L3 17.5" stroke="white" stroke-width="2" stroke-linecap="round"
			stroke-linejoin="round"></path>
	</symbol>
	<symbol fill="none" xmlns="http://www.w3.org/2000/svg" viewBox="0 0 20 20" id="editBook">
		<path
			d="M3.33337 11.2501V3.33341C3.33337 2.89139 3.50897 2.46746 3.82153 2.1549C4.13409 1.84234 4.55801 1.66675 5.00004 1.66675H12.0834L16.6667 6.25008V16.6667C16.6667 17.1088 16.4911 17.5327 16.1786 17.8453C15.866 18.1578 15.4421 18.3334 15 18.3334H10.4167"
			stroke-width="2" stroke-linecap="round" stroke-linejoin="round"></path>
		<path d="M11.6666 1.66675V6.66675H16.6666" stroke-width="2"
			stroke-linecap="round" stroke-linejoin="round"></path>
		<path
			d="M8.68337 10.5084C8.84589 10.3459 9.03881 10.217 9.25114 10.1291C9.46348 10.0411 9.69105 9.99585 9.92087 9.99585C10.1507 9.99585 10.3783 10.0411 10.5906 10.1291C10.8029 10.217 10.9959 10.3459 11.1584 10.5084C11.3209 10.6709 11.4498 10.8639 11.5377 11.0762C11.6257 11.2885 11.671 11.5161 11.671 11.7459C11.671 11.9758 11.6257 12.2033 11.5377 12.4157C11.4498 12.628 11.3209 12.8209 11.1584 12.9834L6.62504 17.5001L3.33337 18.3334L4.15837 15.0418L8.68337 10.5084Z"
			stroke-width="2" stroke-linecap="round" stroke-linejoin="round"></path>
	</symbol>
	<symbol fill="none" xmlns="http://www.w3.org/2000/svg" viewBox="0 0 55 41" id="main-sign">
		<g clip-path="url(#clip0_38_1657)">
			<path
				d="M18.0469 29.0417V39.2917L22.3438 35.875L26.6406 39.2917V33.3542V29.0417H18.0469Z"
				fill="#1F8B48"></path>
			<path
				d="M1.71875 15.5458V15.5458C1.71875 11.0352 1.71875 8.77992 2.50886 7.02081C3.4118 5.01052 5.02094 3.40138 7.03124 2.49844C8.79035 1.70833 11.0456 1.70833 15.5562 1.70833H49.2813C51.1669 1.70833 52.1097 1.70833 52.6955 2.29411C53.2812 2.8799 53.2812 3.82271 53.2812 5.70833V17.3542C53.2812 19.2398 53.2812 20.1826 52.6955 20.7684C52.1097 21.3542 51.1669 21.3542 49.2812 21.3542H9.40625C5.16056 21.3542 1.71875 24.796 1.71875 29.0417V29.0417C1.71875 33.2873 5.16056 36.7292 9.40625 36.7292H18.0469M26.6406 36.7292H53.2812"
				stroke="#0F172A" stroke-width="2" stroke-linecap="round" stroke-linejoin="round"></path>
			<path d="M9.45312 29.0417H53.2812" stroke="#0F172A" stroke-width="2"
				stroke-linecap="round" stroke-linejoin="round"></path>
			<path d="M18.0469 29.0417V39.2917L22.3438 35.875L26.6406 39.2917V29.0417"
				stroke="#0F172A" stroke-width="2" stroke-linecap="round" stroke-linejoin="round"></path>
		</g>
		<defs>
			<clipPath id="clip0_38_1657">
				<rect width="55" height="41" fill="white"></rect>
			</clipPath>
		</defs>
	</symbol>
	<symbol fill="none" xmlns="http://www.w3.org/2000/svg" viewBox="0 0 20 20"
		id="saveEditedBookSVG">
		<path
			d="M3.33331 18.3332H15C15.442 18.3332 15.8659 18.1576 16.1785 17.845C16.4911 17.5325 16.6666 17.1085 16.6666 16.6665V6.24984L12.0833 1.6665H4.99998C4.55795 1.6665 4.13403 1.8421 3.82147 2.15466C3.50891 2.46722 3.33331 2.89114 3.33331 3.33317V6.6665"
			stroke-width="2" stroke-linecap="round" stroke-linejoin="round"></path>
		<path d="M11.6667 1.6665V6.6665H16.6667" stroke-width="2"
			stroke-linecap="round" stroke-linejoin="round"></path>
		<path d="M2.5 12.5002L4.16667 14.1668L7.5 10.8335" stroke-width="2"
			stroke-linecap="round" stroke-linejoin="round"></path>
	</symbol>
	<symbol xmlns="http://www.w3.org/2000/svg" viewBox="0 0 21 20" id="trashBinSVG">
		<path d="M3 5H18" stroke-width="2" stroke-linecap="round"
			stroke-linejoin="round"></path>
		<path
			d="M16.3334 5V16.6667C16.3334 17.5 15.5 18.3333 14.6667 18.3333H6.33335C5.50002 18.3333 4.66669 17.5 4.66669 16.6667V5"
			stroke-width="2" stroke-linecap="round" stroke-linejoin="round"></path>
		<path
			d="M7.16669 4.99984V3.33317C7.16669 2.49984 8.00002 1.6665 8.83335 1.6665H12.1667C13 1.6665 13.8334 2.49984 13.8334 3.33317V4.99984"
			stroke-width="2" stroke-linecap="round" stroke-linejoin="round"></path>
		<path d="M8.83331 9.1665V14.1665" stroke-width="2" stroke-linecap="round"
			stroke-linejoin="round"></path>
		<path d="M12.1667 9.1665V14.1665" stroke-width="2" stroke-linecap="round"
			stroke-linejoin="round"></path>
	</symbol>


	<symbol xmlns="http://www.w3.org/2000/svg" fill="none" viewBox="0 0 21 20" id="searchSVG">
		<path
			d="M9.16667 16.3333C12.8486 16.3333 15.8333 13.3486 15.8333 9.66667C15.8333 5.98477 12.8486 3 9.16667 3C5.48477 3 2.5 5.98477 2.5 9.66667C2.5 13.3486 5.48477 16.3333 9.16667 16.3333Z"
			stroke="#707786" stroke-width="2" stroke-linecap="round" stroke-linejoin="round" />
		<path d="M17.5 18L13.875 14.375" stroke="#707786" stroke-width="2" stroke-linecap="round"
			stroke-linejoin="round" />
	</symbol>
</svg>
