<svg width="1180" height="193" viewBox="0 0 1180 193" fill="none" xmlns="http://www.w3.org/2000/svg">
<path d="M168.642 80V1.59999H240.098V80H222.066V12.24L226.21 16.384H182.53L186.674 12.24V80H168.642ZM259.533 80V1.59999H293.469C300.488 1.59999 306.536 2.75733 311.613 5.072C316.69 7.31199 320.61 10.56 323.373 14.816C326.136 19.072 327.517 24.1493 327.517 30.048C327.517 35.872 326.136 40.912 323.373 45.168C320.61 49.424 316.69 52.7093 311.613 55.024C306.536 57.264 300.488 58.384 293.469 58.384H269.613L277.677 50.208V80H259.533ZM277.677 52.224L269.613 43.6H292.461C298.061 43.6 302.242 42.4053 305.005 40.016C307.768 37.6267 309.149 34.304 309.149 30.048C309.149 25.7173 307.768 22.3573 305.005 19.968C302.242 17.5787 298.061 16.384 292.461 16.384H269.613L277.677 7.76V52.224ZM339.486 80V1.59999H357.518V52.672L394.926 1.59999H411.95V80H394.03V29.04L356.622 80H339.486ZM468.991 81.344C462.793 81.344 457.044 80.336 451.743 78.32C446.516 76.304 441.961 73.4667 438.079 69.808C434.271 66.1493 431.284 61.856 429.119 56.928C427.028 52 425.983 46.624 425.983 40.8C425.983 34.976 427.028 29.6 429.119 24.672C431.284 19.744 434.308 15.4507 438.191 11.792C442.073 8.13333 446.628 5.29599 451.855 3.27999C457.081 1.264 462.756 0.255999 468.879 0.255999C475.076 0.255999 480.751 1.264 485.903 3.27999C491.129 5.29599 495.647 8.13333 499.455 11.792C503.337 15.4507 506.361 19.744 508.527 24.672C510.692 29.5253 511.775 34.9013 511.775 40.8C511.775 46.624 510.692 52.0373 508.527 57.04C506.361 61.968 503.337 66.2613 499.455 69.92C495.647 73.504 491.129 76.304 485.903 78.32C480.751 80.336 475.113 81.344 468.991 81.344ZM468.879 65.888C472.388 65.888 475.599 65.2907 478.511 64.096C481.497 62.9013 484.111 61.184 486.351 58.944C488.591 56.704 490.308 54.0533 491.503 50.992C492.772 47.9307 493.407 44.5333 493.407 40.8C493.407 37.0667 492.772 33.6693 491.503 30.608C490.308 27.5467 488.591 24.896 486.351 22.656C484.185 20.416 481.609 18.6987 478.623 17.504C475.636 16.3093 472.388 15.712 468.879 15.712C465.369 15.712 462.121 16.3093 459.135 17.504C456.223 18.6987 453.647 20.416 451.407 22.656C449.167 24.896 447.412 27.5467 446.143 30.608C444.948 33.6693 444.351 37.0667 444.351 40.8C444.351 44.4587 444.948 47.856 446.143 50.992C447.412 54.0533 449.129 56.704 451.295 58.944C453.535 61.184 456.148 62.9013 459.135 64.096C462.121 65.2907 465.369 65.888 468.879 65.888ZM525.752 80V1.59999H559.688C566.706 1.59999 572.754 2.75733 577.832 5.072C582.909 7.31199 586.829 10.56 589.592 14.816C592.354 19.072 593.736 24.1493 593.736 30.048C593.736 35.872 592.354 40.912 589.592 45.168C586.829 49.424 582.909 52.7093 577.832 55.024C572.754 57.264 566.706 58.384 559.688 58.384H535.832L543.896 50.208V80H525.752ZM543.896 52.224L535.832 43.6H558.68C564.28 43.6 568.461 42.4053 571.224 40.016C573.986 37.6267 575.368 34.304 575.368 30.048C575.368 25.7173 573.986 22.3573 571.224 19.968C568.461 17.5787 564.28 16.384 558.68 16.384H535.832L543.896 7.76V52.224ZM605.705 80V1.59999H623.737V52.672L661.145 1.59999H678.169V80H660.249V29.04L622.841 80H605.705ZM714.601 80V12.24L718.745 16.384H689.625V1.59999H757.609V16.384H728.489L732.521 12.24V80H714.601ZM785.69 33.184H823.434V47.296H785.69V33.184ZM787.034 65.44H829.706V80H769.002V1.59999H828.25V16.16H787.034V65.44ZM861.273 80V12.24L865.417 16.384H836.297V1.59999H904.281V16.384H875.161L879.193 12.24V80H861.273ZM953.642 27.36C963.124 27.36 970.442 29.488 975.594 33.744C980.746 37.9253 983.322 44.2347 983.322 52.672C983.322 61.632 980.447 68.4267 974.698 73.056C969.023 77.6853 961.146 80 951.066 80H915.674V1.59999H933.706V27.36H953.642ZM950.058 66.56C954.687 66.56 958.346 65.4027 961.034 63.088C963.722 60.7733 965.066 57.4133 965.066 53.008C965.066 48.6773 963.722 45.5787 961.034 43.712C958.42 41.7707 954.762 40.8 950.058 40.8H933.706V66.56H950.058ZM993.29 80V1.59999H1011.32V80H993.29ZM1.09744 183.712L-14.6946 161.872L1.09744 139.92H16.7774L1.43344 161.872L16.7774 183.712H1.09744ZM26.4094 183.712L10.6174 161.872L26.4094 139.92H42.0894L26.7454 161.872L42.0894 183.712H26.4094ZM71.3617 145.184H109.106V159.296H71.3617V145.184ZM72.7057 177.44H115.378V192H54.6737V113.6H113.922V128.16H72.7057V177.44ZM182.001 183.936V128.384H155.121L154.785 139.808C154.561 144.661 154.225 149.253 153.777 153.584C153.404 157.915 152.806 161.872 151.985 165.456C151.164 168.965 150.081 171.952 148.737 174.416C147.468 176.88 145.862 178.635 143.921 179.68L124.545 177.216C127.233 177.291 129.436 176.357 131.153 174.416C132.945 172.475 134.364 169.749 135.409 166.24C136.454 162.656 137.201 158.475 137.649 153.696C138.172 148.917 138.545 143.728 138.769 138.128L139.665 113.6H199.921V183.936H182.001ZM121.969 208.24L122.081 177.216H210.897V208.24H194.097V192H138.769V208.24H121.969ZM223.111 192V113.6H241.143V164.672L278.551 113.6H295.575V192H277.655V141.04L240.247 192H223.111ZM368.856 113.6H387V192H368.856V113.6ZM333.24 192H315.096V113.6H333.24V192ZM370.2 159.856H331.896V144.512H370.2V159.856ZM444.162 193.344C437.965 193.344 432.216 192.336 426.914 190.32C421.688 188.304 417.133 185.467 413.25 181.808C409.442 178.149 406.456 173.856 404.29 168.928C402.2 164 401.154 158.624 401.154 152.8C401.154 146.976 402.2 141.6 404.29 136.672C406.456 131.744 409.48 127.451 413.362 123.792C417.245 120.133 421.8 117.296 427.026 115.28C432.253 113.264 437.928 112.256 444.05 112.256C450.248 112.256 455.922 113.264 461.074 115.28C466.301 117.296 470.818 120.133 474.626 123.792C478.509 127.451 481.533 131.744 483.698 136.672C485.864 141.525 486.946 146.901 486.946 152.8C486.946 158.624 485.864 164.037 483.698 169.04C481.533 173.968 478.509 178.261 474.626 181.92C470.818 185.504 466.301 188.304 461.074 190.32C455.922 192.336 450.285 193.344 444.162 193.344ZM444.05 177.888C447.56 177.888 450.77 177.291 453.682 176.096C456.669 174.901 459.282 173.184 461.522 170.944C463.762 168.704 465.48 166.053 466.674 162.992C467.944 159.931 468.578 156.533 468.578 152.8C468.578 149.067 467.944 145.669 466.674 142.608C465.48 139.547 463.762 136.896 461.522 134.656C459.357 132.416 456.781 130.699 453.794 129.504C450.808 128.309 447.56 127.712 444.05 127.712C440.541 127.712 437.293 128.309 434.306 129.504C431.394 130.699 428.818 132.416 426.578 134.656C424.338 136.896 422.584 139.547 421.314 142.608C420.12 145.669 419.522 149.067 419.522 152.8C419.522 156.459 420.12 159.856 421.314 162.992C422.584 166.053 424.301 168.704 426.466 170.944C428.706 173.184 431.32 174.901 434.306 176.096C437.293 177.291 440.541 177.888 444.05 177.888ZM500.924 192V113.6H518.956V164.672L556.364 113.6H573.388V192H555.468V141.04L518.06 192H500.924ZM537.1 108.56C529.633 108.56 524.145 107.067 520.636 104.08C517.201 101.093 515.446 96.8747 515.372 91.424H527.804C527.878 94.112 528.662 96.1653 530.156 97.584C531.724 98.928 534.038 99.6 537.1 99.6C540.086 99.6 542.364 98.928 543.932 97.584C545.5 96.1653 546.321 94.112 546.396 91.424H558.828C558.753 96.8747 556.961 101.093 553.452 104.08C549.942 107.067 544.492 108.56 537.1 108.56ZM624.627 192V113.6H658.563C665.581 113.6 671.629 114.757 676.707 117.072C681.784 119.312 685.704 122.56 688.467 126.816C691.229 131.072 692.611 136.149 692.611 142.048C692.611 147.872 691.229 152.912 688.467 157.168C685.704 161.424 681.784 164.709 676.707 167.024C671.629 169.264 665.581 170.384 658.563 170.384H634.707L642.771 162.208V192H624.627ZM642.771 164.224L634.707 155.6H657.555C663.155 155.6 667.336 154.405 670.099 152.016C672.861 149.627 674.243 146.304 674.243 142.048C674.243 137.717 672.861 134.357 670.099 131.968C667.336 129.579 663.155 128.384 657.555 128.384H634.707L642.771 119.76V164.224ZM743.194 193.344C736.996 193.344 731.247 192.336 725.946 190.32C720.719 188.304 716.164 185.467 712.282 181.808C708.474 178.149 705.487 173.856 703.322 168.928C701.231 164 700.186 158.624 700.186 152.8C700.186 146.976 701.231 141.6 703.322 136.672C705.487 131.744 708.511 127.451 712.394 123.792C716.276 120.133 720.831 117.296 726.058 115.28C731.284 113.264 736.959 112.256 743.082 112.256C749.279 112.256 754.954 113.264 760.106 115.28C765.332 117.296 769.85 120.133 773.658 123.792C777.54 127.451 780.564 131.744 782.73 136.672C784.895 141.525 785.978 146.901 785.978 152.8C785.978 158.624 784.895 164.037 782.73 169.04C780.564 173.968 777.54 178.261 773.658 181.92C769.85 185.504 765.332 188.304 760.106 190.32C754.954 192.336 749.316 193.344 743.194 193.344ZM743.082 177.888C746.591 177.888 749.802 177.291 752.714 176.096C755.7 174.901 758.314 173.184 760.554 170.944C762.794 168.704 764.511 166.053 765.706 162.992C766.975 159.931 767.61 156.533 767.61 152.8C767.61 149.067 766.975 145.669 765.706 142.608C764.511 139.547 762.794 136.896 760.554 134.656C758.388 132.416 755.812 130.699 752.826 129.504C749.839 128.309 746.591 127.712 743.082 127.712C739.572 127.712 736.324 128.309 733.338 129.504C730.426 130.699 727.85 132.416 725.61 134.656C723.37 136.896 721.615 139.547 720.346 142.608C719.151 145.669 718.554 149.067 718.554 152.8C718.554 156.459 719.151 159.856 720.346 162.992C721.615 166.053 723.332 168.704 725.498 170.944C727.738 173.184 730.351 174.901 733.338 176.096C736.324 177.291 739.572 177.888 743.082 177.888ZM837.027 193.344C830.979 193.344 825.342 192.373 820.115 190.432C814.963 188.416 810.483 185.579 806.675 181.92C802.867 178.261 799.88 173.968 797.715 169.04C795.624 164.112 794.579 158.699 794.579 152.8C794.579 146.901 795.624 141.488 797.715 136.56C799.88 131.632 802.867 127.339 806.675 123.68C810.558 120.021 815.075 117.221 820.227 115.28C825.379 113.264 831.016 112.256 837.139 112.256C843.934 112.256 850.056 113.451 855.507 115.84C861.032 118.155 865.662 121.589 869.395 126.144L857.747 136.896C855.059 133.835 852.072 131.557 848.787 130.064C845.502 128.496 841.918 127.712 838.035 127.712C834.376 127.712 831.016 128.309 827.955 129.504C824.894 130.699 822.243 132.416 820.003 134.656C817.763 136.896 816.008 139.547 814.739 142.608C813.544 145.669 812.947 149.067 812.947 152.8C812.947 156.533 813.544 159.931 814.739 162.992C816.008 166.053 817.763 168.704 820.003 170.944C822.243 173.184 824.894 174.901 827.955 176.096C831.016 177.291 834.376 177.888 838.035 177.888C841.918 177.888 845.502 177.141 848.787 175.648C852.072 174.08 855.059 171.728 857.747 168.592L869.395 179.344C865.662 183.899 861.032 187.371 855.507 189.76C850.056 192.149 843.896 193.344 837.027 193.344ZM916.652 193.344C910.604 193.344 904.967 192.373 899.74 190.432C894.588 188.416 890.108 185.579 886.3 181.92C882.492 178.261 879.505 173.968 877.34 169.04C875.249 164.112 874.204 158.699 874.204 152.8C874.204 146.901 875.249 141.488 877.34 136.56C879.505 131.632 882.492 127.339 886.3 123.68C890.183 120.021 894.7 117.221 899.852 115.28C905.004 113.264 910.641 112.256 916.764 112.256C923.559 112.256 929.681 113.451 935.132 115.84C940.657 118.155 945.287 121.589 949.02 126.144L937.372 136.896C934.684 133.835 931.697 131.557 928.412 130.064C925.127 128.496 921.543 127.712 917.66 127.712C914.001 127.712 910.641 128.309 907.58 129.504C904.519 130.699 901.868 132.416 899.628 134.656C897.388 136.896 895.633 139.547 894.364 142.608C893.169 145.669 892.572 149.067 892.572 152.8C892.572 156.533 893.169 159.931 894.364 162.992C895.633 166.053 897.388 168.704 899.628 170.944C901.868 173.184 904.519 174.901 907.58 176.096C910.641 177.291 914.001 177.888 917.66 177.888C921.543 177.888 925.127 177.141 928.412 175.648C931.697 174.08 934.684 171.728 937.372 168.592L949.02 179.344C945.287 183.899 940.657 187.371 935.132 189.76C929.681 192.149 923.521 193.344 916.652 193.344ZM960.846 192V113.6H978.878V164.672L1016.29 113.6H1033.31V192H1015.39V141.04L977.982 192H960.846ZM1052.83 192V113.6H1070.86V164.672L1108.27 113.6H1125.29V192H1107.37V141.04L1069.97 192H1052.83ZM1153.55 183.712H1137.87L1153.21 161.872L1137.87 139.92H1153.55L1169.34 161.872L1153.55 183.712ZM1178.86 183.712H1163.18L1178.53 161.872L1163.18 139.92H1178.86L1194.65 161.872L1178.86 183.712Z" fill="white" fill-opacity="0"/>
</svg>
